<svg width="13" height="10" viewBox="0 0 13 10" fill="none" xmlns="http://www.w3.org/2000/svg">
<path d="M2.1125 1.89998H1.1375C0.868359 1.89998 0.65 2.11935 0.65 2.38748V4.49998C0.291078 4.49998 0 4.79044 0 5.14998C0 5.5089 0.291078 5.79998 0.631719 5.79998L0.65 7.91248C0.65 8.18263 0.868359 8.39998 1.1375 8.39998H2.1125C2.38266 8.39998 2.6 8.18263 2.6 7.91248V2.38748C2.6 2.11935 2.38266 1.89998 2.1125 1.89998ZM9.2625 0.599976H8.2875C8.01937 0.599976 7.8 0.818335 7.8 1.08748V4.49998H5.2V1.08748C5.2 0.818335 4.98266 0.599976 4.7125 0.599976H3.7375C3.46937 0.599976 3.25 0.818335 3.25 1.08748V9.21248C3.25 9.48263 3.46937 9.69998 3.7375 9.69998H4.7125C4.98266 9.69998 5.2 9.48263 5.2 9.21248V5.79998H7.8V9.21248C7.8 9.48162 8.01836 9.69998 8.2875 9.69998H9.2625C9.53164 9.69998 9.75 9.48162 9.75 9.21248V1.08748C9.75 0.818335 9.53266 0.599976 9.2625 0.599976ZM12.35 4.49998V2.38748C12.35 2.11935 12.1327 1.89998 11.8625 1.89998H10.8875C10.6194 1.89998 10.4 2.11935 10.4 2.38748V7.91248C10.4 8.18162 10.6184 8.39998 10.8875 8.39998H11.8625C12.1316 8.39998 12.35 8.18162 12.35 7.91248V5.79998C12.7089 5.79998 13 5.5089 13 5.14998C13 4.79044 12.7095 4.49998 12.35 4.49998Z" fill="#646464"/>
</svg>
