<svg width="16" height="19" viewBox="0 0 16 19" fill="none" xmlns="http://www.w3.org/2000/svg">
<path fill-rule="evenodd" clip-rule="evenodd" d="M7.16667 3.37915V2.50004H6.33333V0.833374H9.66667V2.50004H8.83333V3.37915C10.2796 3.53902 11.6019 4.11012 12.6807 4.97293L14.0761 3.57142L15.2572 4.74735L13.8594 6.15131C14.8861 7.43447 15.5 9.06223 15.5 10.8334C15.5 14.9755 12.1421 18.3334 8 18.3334C3.85786 18.3334 0.5 14.9755 0.5 10.8334C0.5 6.97291 3.41671 3.79368 7.16667 3.37915ZM8 16.6667C11.2217 16.6667 13.8333 14.055 13.8333 10.8334C13.8333 7.61171 11.2217 5.00004 8 5.00004C4.77834 5.00004 2.16667 7.61171 2.16667 10.8334C2.16667 14.055 4.77834 16.6667 8 16.6667ZM7.16667 6.66671H8.83333V11.6667H7.16667V6.66671Z" fill="#5F48D9"/>
</svg>
